<svg width="180" height="58" viewBox="0 0 180 58" fill="none" xmlns="http://www.w3.org/2000/svg">
<path d="M56.264 21.2H64.304C64.72 21.2 65.064 21.336 65.336 21.608C65.624 21.864 65.768 22.2 65.768 22.616C65.768 23.016 65.624 23.344 65.336 23.6C65.064 23.84 64.72 23.96 64.304 23.96H57.584L57.8 23.552V28.232L57.608 28.04H63.224C63.64 28.04 63.984 28.176 64.256 28.448C64.544 28.704 64.688 29.04 64.688 29.456C64.688 29.856 64.544 30.184 64.256 30.44C63.984 30.68 63.64 30.8 63.224 30.8H57.68L57.8 30.608V35.456L57.608 35.24H64.304C64.72 35.24 65.064 35.384 65.336 35.672C65.624 35.944 65.768 36.264 65.768 36.632C65.768 37.032 65.624 37.36 65.336 37.616C65.064 37.872 64.72 38 64.304 38H56.264C55.848 38 55.496 37.864 55.208 37.592C54.936 37.304 54.8 36.952 54.8 36.536V22.664C54.8 22.248 54.936 21.904 55.208 21.632C55.496 21.344 55.848 21.2 56.264 21.2ZM78.0864 24.92C78.5024 24.92 78.8464 25.056 79.1184 25.328C79.3904 25.6 79.5264 25.952 79.5264 26.384V36.536C79.5264 36.952 79.3904 37.304 79.1184 37.592C78.8464 37.864 78.5024 38 78.0864 38C77.6704 38 77.3264 37.864 77.0544 37.592C76.7824 37.304 76.6464 36.952 76.6464 36.536V35.36L77.1744 35.576C77.1744 35.784 77.0624 36.04 76.8384 36.344C76.6144 36.632 76.3104 36.92 75.9264 37.208C75.5424 37.496 75.0864 37.744 74.5584 37.952C74.0464 38.144 73.4864 38.24 72.8784 38.24C71.7744 38.24 70.7744 37.96 69.8784 37.4C68.9824 36.824 68.2704 36.04 67.7424 35.048C67.2304 34.04 66.9744 32.888 66.9744 31.592C66.9744 30.28 67.2304 29.128 67.7424 28.136C68.2704 27.128 68.9744 26.344 69.8544 25.784C70.7344 25.208 71.7104 24.92 72.7824 24.92C73.4704 24.92 74.1024 25.024 74.6784 25.232C75.2544 25.44 75.7504 25.704 76.1664 26.024C76.5984 26.344 76.9264 26.672 77.1504 27.008C77.3904 27.328 77.5104 27.6 77.5104 27.824L76.6464 28.136V26.384C76.6464 25.968 76.7824 25.624 77.0544 25.352C77.3264 25.064 77.6704 24.92 78.0864 24.92ZM73.2384 35.6C73.9424 35.6 74.5584 35.424 75.0864 35.072C75.6144 34.72 76.0224 34.24 76.3104 33.632C76.6144 33.024 76.7664 32.344 76.7664 31.592C76.7664 30.824 76.6144 30.136 76.3104 29.528C76.0224 28.92 75.6144 28.44 75.0864 28.088C74.5584 27.736 73.9424 27.56 73.2384 27.56C72.5504 27.56 71.9424 27.736 71.4144 28.088C70.8864 28.44 70.4704 28.92 70.1664 29.528C69.8784 30.136 69.7344 30.824 69.7344 31.592C69.7344 32.344 69.8784 33.024 70.1664 33.632C70.4704 34.24 70.8864 34.72 71.4144 35.072C71.9424 35.424 72.5504 35.6 73.2384 35.6ZM81.1807 36.008C81.0207 35.784 80.9487 35.496 80.9647 35.144C80.9807 34.792 81.1887 34.488 81.5887 34.232C81.8447 34.072 82.1167 34.008 82.4047 34.04C82.6927 34.056 82.9727 34.2 83.2447 34.472C83.7087 34.936 84.1967 35.296 84.7087 35.552C85.2207 35.808 85.8607 35.936 86.6287 35.936C86.8687 35.92 87.1327 35.888 87.4207 35.84C87.7087 35.776 87.9567 35.648 88.1647 35.456C88.3887 35.248 88.5007 34.936 88.5007 34.52C88.5007 34.168 88.3807 33.888 88.1407 33.68C87.9007 33.472 87.5807 33.296 87.1807 33.152C86.7967 33.008 86.3647 32.872 85.8847 32.744C85.3887 32.6 84.8767 32.44 84.3487 32.264C83.8367 32.088 83.3647 31.864 82.9327 31.592C82.5007 31.304 82.1487 30.928 81.8767 30.464C81.6047 30 81.4687 29.416 81.4687 28.712C81.4687 27.912 81.6927 27.232 82.1407 26.672C82.5887 26.112 83.1647 25.68 83.8687 25.376C84.5887 25.072 85.3407 24.92 86.1247 24.92C86.6207 24.92 87.1407 24.984 87.6847 25.112C88.2287 25.224 88.7487 25.416 89.2447 25.688C89.7407 25.944 90.1567 26.288 90.4927 26.72C90.6687 26.96 90.7727 27.248 90.8047 27.584C90.8367 27.92 90.6847 28.224 90.3487 28.496C90.1087 28.688 89.8287 28.776 89.5087 28.76C89.1887 28.728 88.9247 28.616 88.7167 28.424C88.4447 28.072 88.0767 27.792 87.6127 27.584C87.1647 27.376 86.6447 27.272 86.0527 27.272C85.8127 27.272 85.5487 27.304 85.2607 27.368C84.9887 27.416 84.7487 27.536 84.5407 27.728C84.3327 27.904 84.2287 28.192 84.2287 28.592C84.2287 28.96 84.3487 29.256 84.5887 29.48C84.8287 29.688 85.1487 29.864 85.5487 30.008C85.9647 30.136 86.4047 30.264 86.8687 30.392C87.3487 30.52 87.8367 30.672 88.3327 30.848C88.8287 31.024 89.2847 31.256 89.7007 31.544C90.1167 31.832 90.4527 32.208 90.7087 32.672C90.9647 33.12 91.0927 33.696 91.0927 34.4C91.0927 35.216 90.8527 35.912 90.3727 36.488C89.8927 37.064 89.2927 37.504 88.5727 37.808C87.8527 38.096 87.1167 38.24 86.3647 38.24C85.4207 38.24 84.4767 38.08 83.5327 37.76C82.5887 37.424 81.8047 36.84 81.1807 36.008ZM102.311 25.16C102.727 25.16 103.071 25.304 103.343 25.592C103.615 25.864 103.751 26.208 103.751 26.624V36.824C103.751 38.296 103.471 39.464 102.911 40.328C102.367 41.208 101.631 41.84 100.703 42.224C99.7748 42.608 98.7348 42.8 97.5828 42.8C97.0708 42.8 96.5268 42.76 95.9508 42.68C95.3748 42.6 94.9028 42.48 94.5348 42.32C94.0548 42.112 93.7188 41.848 93.5268 41.528C93.3508 41.224 93.3188 40.896 93.4308 40.544C93.5748 40.08 93.8068 39.76 94.1268 39.584C94.4468 39.424 94.7828 39.408 95.1348 39.536C95.3908 39.616 95.7268 39.736 96.1428 39.896C96.5588 40.072 97.0388 40.16 97.5828 40.16C98.3188 40.16 98.9268 40.056 99.4068 39.848C99.9028 39.656 100.271 39.32 100.511 38.84C100.767 38.376 100.895 37.736 100.895 36.92V35.312L101.399 35.888C101.127 36.416 100.783 36.856 100.367 37.208C99.9668 37.544 99.4868 37.8 98.9268 37.976C98.3668 38.152 97.7268 38.24 97.0068 38.24C96.1588 38.24 95.4148 38.048 94.7748 37.664C94.1508 37.264 93.6628 36.72 93.3108 36.032C92.9588 35.328 92.7828 34.528 92.7828 33.632V26.624C92.7828 26.208 92.9188 25.864 93.1908 25.592C93.4628 25.304 93.8068 25.16 94.2228 25.16C94.6388 25.16 94.9828 25.304 95.2548 25.592C95.5268 25.864 95.6628 26.208 95.6628 26.624V32.768C95.6628 33.808 95.8868 34.544 96.3348 34.976C96.7988 35.392 97.4388 35.6 98.2548 35.6C98.8148 35.6 99.2868 35.496 99.6708 35.288C100.055 35.064 100.351 34.744 100.559 34.328C100.767 33.896 100.871 33.376 100.871 32.768V26.624C100.871 26.208 101.007 25.864 101.279 25.592C101.551 25.304 101.895 25.16 102.311 25.16Z" fill="white"/>
<path d="M122.208 22.304C122.48 22.448 122.632 22.664 122.664 22.952C122.712 23.24 122.64 23.504 122.448 23.744C122.304 23.952 122.12 24.064 121.896 24.08C121.672 24.096 121.448 24.048 121.224 23.936C120.696 23.616 120.128 23.368 119.52 23.192C118.912 23 118.272 22.904 117.6 22.904C116.656 22.904 115.792 23.072 115.008 23.408C114.224 23.728 113.544 24.184 112.968 24.776C112.392 25.368 111.944 26.072 111.624 26.888C111.304 27.704 111.144 28.608 111.144 29.6C111.144 30.656 111.312 31.6 111.648 32.432C111.984 33.264 112.44 33.976 113.016 34.568C113.608 35.144 114.288 35.584 115.056 35.888C115.84 36.192 116.688 36.344 117.6 36.344C118.256 36.344 118.888 36.256 119.496 36.08C120.104 35.904 120.68 35.648 121.224 35.312C121.448 35.2 121.672 35.16 121.896 35.192C122.12 35.224 122.312 35.336 122.472 35.528C122.664 35.784 122.736 36.056 122.688 36.344C122.64 36.616 122.488 36.816 122.232 36.944C121.832 37.184 121.376 37.408 120.864 37.616C120.352 37.808 119.816 37.96 119.256 38.072C118.712 38.184 118.16 38.24 117.6 38.24C116.448 38.24 115.36 38.04 114.336 37.64C113.312 37.24 112.408 36.664 111.624 35.912C110.84 35.16 110.216 34.256 109.752 33.2C109.304 32.128 109.08 30.928 109.08 29.6C109.08 28.352 109.296 27.208 109.728 26.168C110.16 25.128 110.76 24.224 111.528 23.456C112.312 22.688 113.216 22.088 114.24 21.656C115.28 21.224 116.4 21.008 117.6 21.008C118.432 21.008 119.24 21.12 120.024 21.344C120.824 21.568 121.552 21.888 122.208 22.304ZM136.309 31.76C136.309 33.008 136.029 34.12 135.469 35.096C134.925 36.072 134.181 36.84 133.237 37.4C132.309 37.96 131.261 38.24 130.093 38.24C128.925 38.24 127.869 37.96 126.925 37.4C125.981 36.84 125.229 36.072 124.669 35.096C124.125 34.12 123.853 33.008 123.853 31.76C123.853 30.512 124.125 29.4 124.669 28.424C125.229 27.448 125.981 26.68 126.925 26.12C127.869 25.56 128.925 25.28 130.093 25.28C131.261 25.28 132.309 25.56 133.237 26.12C134.181 26.68 134.925 27.448 135.469 28.424C136.029 29.4 136.309 30.512 136.309 31.76ZM134.389 31.76C134.389 30.832 134.197 30.016 133.813 29.312C133.445 28.608 132.933 28.056 132.277 27.656C131.637 27.256 130.909 27.056 130.093 27.056C129.277 27.056 128.541 27.256 127.885 27.656C127.245 28.056 126.733 28.608 126.349 29.312C125.965 30.016 125.773 30.832 125.773 31.76C125.773 32.672 125.965 33.48 126.349 34.184C126.733 34.888 127.245 35.448 127.885 35.864C128.541 36.264 129.277 36.464 130.093 36.464C130.909 36.464 131.637 36.264 132.277 35.864C132.933 35.448 133.445 34.888 133.813 34.184C134.197 33.48 134.389 32.672 134.389 31.76ZM144.597 25.4C145.685 25.4 146.661 25.672 147.525 26.216C148.389 26.76 149.069 27.512 149.565 28.472C150.077 29.432 150.333 30.536 150.333 31.784C150.333 33.016 150.077 34.12 149.565 35.096C149.069 36.056 148.389 36.816 147.525 37.376C146.677 37.92 145.717 38.192 144.645 38.192C144.053 38.192 143.493 38.104 142.965 37.928C142.453 37.736 141.981 37.496 141.549 37.208C141.133 36.904 140.781 36.568 140.493 36.2C140.205 35.816 139.997 35.44 139.869 35.072L140.397 34.736V41.816C140.397 42.088 140.309 42.32 140.133 42.512C139.957 42.704 139.725 42.8 139.437 42.8C139.165 42.8 138.933 42.704 138.741 42.512C138.565 42.336 138.477 42.104 138.477 41.816V26.48C138.477 26.208 138.565 25.984 138.741 25.808C138.933 25.616 139.165 25.52 139.437 25.52C139.725 25.52 139.957 25.616 140.133 25.808C140.309 25.984 140.397 26.208 140.397 26.48V28.616L140.037 28.424C140.149 28.024 140.341 27.64 140.613 27.272C140.901 26.904 141.245 26.584 141.645 26.312C142.061 26.024 142.517 25.8 143.013 25.64C143.525 25.48 144.053 25.4 144.597 25.4ZM144.381 27.176C143.581 27.176 142.869 27.376 142.245 27.776C141.637 28.176 141.157 28.72 140.805 29.408C140.469 30.096 140.301 30.888 140.301 31.784C140.301 32.664 140.469 33.456 140.805 34.16C141.157 34.864 141.637 35.416 142.245 35.816C142.869 36.216 143.581 36.416 144.381 36.416C145.181 36.416 145.885 36.216 146.493 35.816C147.101 35.416 147.581 34.864 147.933 34.16C148.285 33.456 148.461 32.664 148.461 31.784C148.461 30.888 148.285 30.096 147.933 29.408C147.581 28.72 147.101 28.176 146.493 27.776C145.885 27.376 145.181 27.176 144.381 27.176ZM154.347 37.016C154.347 37.288 154.251 37.52 154.059 37.712C153.883 37.904 153.659 38 153.387 38C153.099 38 152.867 37.904 152.691 37.712C152.515 37.52 152.427 37.288 152.427 37.016V26.36C152.427 26.088 152.515 25.864 152.691 25.688C152.883 25.496 153.115 25.4 153.387 25.4C153.659 25.4 153.883 25.496 154.059 25.688C154.251 25.864 154.347 26.088 154.347 26.36V37.016ZM153.387 23.792C152.987 23.792 152.691 23.712 152.499 23.552C152.307 23.392 152.211 23.144 152.211 22.808V22.472C152.211 22.136 152.315 21.888 152.523 21.728C152.731 21.568 153.027 21.488 153.411 21.488C153.795 21.488 154.083 21.568 154.275 21.728C154.467 21.888 154.563 22.136 154.563 22.472V22.808C154.563 23.144 154.459 23.392 154.251 23.552C154.059 23.712 153.771 23.792 153.387 23.792ZM162.812 38.24C161.532 38.24 160.412 37.968 159.452 37.424C158.492 36.88 157.74 36.136 157.196 35.192C156.668 34.232 156.404 33.128 156.404 31.88C156.404 30.488 156.676 29.304 157.22 28.328C157.78 27.336 158.5 26.584 159.38 26.072C160.276 25.544 161.22 25.28 162.212 25.28C162.948 25.28 163.66 25.416 164.348 25.688C165.036 25.96 165.644 26.36 166.172 26.888C166.7 27.4 167.124 28.024 167.444 28.76C167.764 29.48 167.932 30.288 167.948 31.184C167.948 31.44 167.852 31.656 167.66 31.832C167.468 32.008 167.244 32.096 166.988 32.096H157.508L157.076 30.44H166.316L165.932 30.776V30.248C165.868 29.592 165.644 29.032 165.26 28.568C164.892 28.088 164.436 27.72 163.892 27.464C163.364 27.208 162.804 27.08 162.212 27.08C161.732 27.08 161.252 27.168 160.772 27.344C160.308 27.504 159.884 27.776 159.5 28.16C159.132 28.528 158.828 29.008 158.588 29.6C158.364 30.192 158.252 30.904 158.252 31.736C158.252 32.664 158.436 33.48 158.804 34.184C159.188 34.888 159.716 35.448 160.388 35.864C161.06 36.264 161.844 36.464 162.74 36.464C163.3 36.464 163.788 36.392 164.204 36.248C164.62 36.104 164.98 35.928 165.284 35.72C165.588 35.496 165.844 35.272 166.052 35.048C166.26 34.904 166.46 34.832 166.652 34.832C166.892 34.832 167.084 34.912 167.228 35.072C167.388 35.232 167.468 35.424 167.468 35.648C167.468 35.92 167.34 36.16 167.084 36.368C166.636 36.864 166.028 37.304 165.26 37.688C164.492 38.056 163.676 38.24 162.812 38.24ZM169.418 36.032C169.274 35.824 169.21 35.608 169.226 35.384C169.242 35.144 169.378 34.936 169.634 34.76C169.794 34.648 169.978 34.6 170.186 34.616C170.41 34.632 170.61 34.736 170.786 34.928C171.234 35.456 171.746 35.88 172.322 36.2C172.898 36.504 173.602 36.656 174.434 36.656C174.818 36.64 175.202 36.576 175.586 36.464C175.97 36.352 176.29 36.16 176.546 35.888C176.818 35.6 176.954 35.224 176.954 34.76C176.954 34.312 176.818 33.96 176.546 33.704C176.274 33.432 175.922 33.216 175.49 33.056C175.058 32.88 174.586 32.728 174.074 32.6C173.546 32.456 173.026 32.296 172.514 32.12C172.002 31.928 171.538 31.696 171.122 31.424C170.722 31.136 170.394 30.784 170.138 30.368C169.898 29.936 169.778 29.416 169.778 28.808C169.778 28.088 169.97 27.464 170.354 26.936C170.754 26.408 171.282 26 171.938 25.712C172.61 25.424 173.338 25.28 174.122 25.28C174.57 25.28 175.034 25.336 175.514 25.448C176.01 25.544 176.49 25.72 176.954 25.976C177.418 26.216 177.826 26.552 178.178 26.984C178.322 27.144 178.402 27.344 178.418 27.584C178.434 27.824 178.33 28.04 178.106 28.232C177.93 28.36 177.73 28.416 177.506 28.4C177.298 28.384 177.122 28.304 176.978 28.16C176.642 27.76 176.218 27.456 175.706 27.248C175.21 27.024 174.658 26.912 174.05 26.912C173.666 26.912 173.29 26.968 172.922 27.08C172.554 27.192 172.242 27.384 171.986 27.656C171.746 27.912 171.626 28.272 171.626 28.736C171.642 29.168 171.786 29.52 172.058 29.792C172.33 30.064 172.698 30.288 173.162 30.464C173.626 30.624 174.138 30.784 174.698 30.944C175.21 31.072 175.698 31.224 176.162 31.4C176.642 31.56 177.074 31.776 177.458 32.048C177.842 32.32 178.146 32.672 178.37 33.104C178.594 33.52 178.706 34.048 178.706 34.688C178.706 35.424 178.498 36.064 178.082 36.608C177.666 37.136 177.114 37.544 176.426 37.832C175.754 38.104 175.026 38.24 174.242 38.24C173.362 38.24 172.49 38.072 171.626 37.736C170.778 37.4 170.042 36.832 169.418 36.032Z" fill="white"/>
<path d="M45.2 3.72C46.5867 4.41333 47.3867 5.50666 47.6 7C47.8667 8.49333 47.4933 9.85333 46.48 11.08C45.7867 12.04 44.88 12.5733 43.76 12.68C42.6933 12.7867 41.6 12.5733 40.48 12.04C39.2 11.4533 37.84 11 36.4 10.68C35.0133 10.36 33.5467 10.2 32 10.2C29.12 10.2 26.5333 10.6533 24.24 11.56C22 12.4667 20.08 13.7733 18.48 15.48C16.88 17.1333 15.6533 19.1067 14.8 21.4C14 23.6933 13.6 26.2267 13.6 29C13.6 32.2533 14.0533 35.08 14.96 37.48C15.92 39.88 17.2267 41.88 18.88 43.48C20.5333 45.08 22.48 46.28 24.72 47.08C26.96 47.8267 29.3867 48.2 32 48.2C33.44 48.2 34.88 48.0667 36.32 47.8C37.76 47.5333 39.1467 47.0533 40.48 46.36C41.6 45.8267 42.6933 45.64 43.76 45.8C44.88 45.96 45.8133 46.52 46.56 47.48C47.6267 48.8133 48 50.2 47.68 51.64C47.4133 53.0267 46.6133 54.04 45.28 54.68C43.8933 55.3733 42.4533 55.96 40.96 56.44C39.52 56.8667 38.0533 57.1867 36.56 57.4C35.0667 57.6667 33.5467 57.8 32 57.8C28.16 57.8 24.5067 57.1867 21.04 55.96C17.6267 54.7333 14.56 52.92 11.84 50.52C9.17333 48.12 7.06667 45.1333 5.52 41.56C3.97333 37.9333 3.2 33.7467 3.2 29C3.2 24.8933 3.89333 21.1067 5.28 17.64C6.72 14.1733 8.72 11.1867 11.28 8.68C13.8933 6.12 16.96 4.14667 20.48 2.76C24 1.32 27.84 0.599997 32 0.599997C34.3467 0.599997 36.64 0.866663 38.88 1.4C41.12 1.93333 43.2267 2.70666 45.2 3.72Z" fill="white"/>
<rect x="22" y="19" width="20" height="5" rx="2.5" fill="white"/>
<rect x="22" y="35" width="20" height="5" rx="2.5" fill="white"/>
<rect x="22" y="27" width="20" height="5" rx="2.5" fill="white"/>
</svg>
